<?xml version="1.0" standalone="no"?>
<!DOCTYPE svg PUBLIC "-//W3C//DTD SVG 20010904//EN"
 "http://www.w3.org/TR/2001/REC-SVG-20010904/DTD/svg10.dtd">
<svg version="1.0" xmlns="http://www.w3.org/2000/svg"
 width="525.000000pt" height="113.000000pt" viewBox="0 0 525.000000 113.000000"
 preserveAspectRatio="xMidYMid meet">
<metadata>
Created by potrace 1.14, written by Peter Selinger 2001-2017
</metadata>
<g transform="translate(0.000000,113.000000) scale(0.100000,-0.100000)"
fill="#000000" stroke="none">
<path d="M427 939 l-207 -121 2 -246 3 -246 170 -99 c94 -54 186 -108 206
-119 l36 -20 212 122 211 122 0 242 0 242 -207 119 c-114 66 -209 121 -212
122 -4 1 -99 -52 -214 -118z m48 -140 c-35 -51 -55 -105 -55 -149 0 -21 2 -22
13 -10 8 8 19 34 26 57 6 24 23 55 37 70 24 26 24 27 11 3 -8 -14 -18 -36 -22
-50 -6 -22 -3 -21 31 14 52 52 106 76 177 76 71 0 121 -24 169 -80 121 -141
44 -351 -143 -394 -23 -5 -21 0 22 42 29 29 51 62 58 87 14 50 14 108 1 100
-5 -3 -10 -18 -10 -32 0 -39 -43 -106 -89 -137 -91 -64 -170 -71 -256 -26 -56
29 -59 30 -78 13 -12 -11 -17 -12 -12 -4 6 11 4 13 -9 8 -31 -12 -6 12 40 39
l45 27 -36 37 c-30 30 -35 41 -27 56 5 11 12 45 15 76 7 72 38 143 85 191 20
20 37 37 38 37 2 0 -13 -23 -31 -51z"/>
<path d="M1377 863 c-8 -13 -137 -295 -137 -299 0 -2 5 -4 11 -4 5 0 19 20 30
45 l20 45 89 0 88 0 18 -45 c9 -25 23 -45 30 -45 8 0 14 2 14 4 0 2 -31 70
-68 152 -63 137 -83 167 -95 147z"/>
<path d="M1627 863 c-4 -3 -7 -73 -7 -155 0 -115 3 -149 13 -145 9 3 12 38 12
130 0 70 2 127 5 127 3 -1 50 -59 105 -130 55 -71 103 -129 108 -130 4 0 7 65
7 145 0 80 0 147 0 150 0 3 -3 5 -7 5 -5 0 -9 -57 -11 -126 l-3 -125 -105 130
c-57 72 -106 131 -108 131 -1 0 -6 -3 -9 -7z"/>
<path d="M2041 852 c-50 -25 -74 -63 -79 -125 -5 -67 17 -118 63 -147 44 -27
128 -27 173 0 30 19 32 23 32 80 l0 60 -60 0 c-33 0 -60 -4 -60 -10 0 -5 23
-10 50 -10 l50 0 0 -45 c0 -39 -4 -46 -30 -60 -43 -22 -112 -19 -145 7 -52 41
-68 113 -38 175 30 64 113 92 173 58 30 -17 40 -18 40 -5 0 16 -57 40 -97 40
-21 0 -53 -8 -72 -18z"/>
<path d="M2337 863 c-4 -3 -7 -73 -7 -155 0 -115 3 -149 13 -146 7 3 13 28 15
66 l3 62 44 0 c41 0 46 -3 95 -65 28 -36 58 -65 67 -65 10 0 -3 23 -35 64
l-51 64 30 12 c90 38 70 147 -29 164 -49 8 -137 8 -145 -1z m185 -40 c10 -9
18 -30 18 -49 0 -48 -29 -64 -112 -64 l-68 0 0 65 0 65 72 0 c52 0 76 -4 90
-17z"/>
<path d="M3174 856 c-81 -36 -112 -146 -66 -233 32 -60 144 -83 210 -43 17 11
32 24 32 30 0 14 -5 13 -42 -10 -19 -11 -51 -20 -74 -20 -126 0 -171 184 -61
250 41 26 83 25 131 -1 39 -20 54 -20 41 1 -11 18 -71 40 -107 40 -18 -1 -47
-7 -64 -14z"/>
<path d="M3547 863 c-8 -13 -137 -295 -137 -299 0 -2 5 -4 11 -4 5 0 19 20 30
45 l20 45 89 0 88 0 18 -45 c9 -25 23 -45 30 -45 8 0 14 2 14 4 0 2 -31 70
-68 152 -63 137 -83 167 -95 147z"/>
<path d="M3720 855 c0 -11 12 -15 50 -15 l50 0 0 -141 c0 -108 3 -140 13 -137
8 3 13 43 15 141 l3 136 46 3 c26 2 48 9 51 16 3 9 -24 12 -112 12 -96 0 -116
-3 -116 -15z"/>
<path d="M4040 715 c0 -97 4 -155 10 -155 6 0 10 30 10 70 l0 70 85 0 c50 0
85 4 85 10 0 6 -35 10 -85 10 l-85 0 0 60 0 60 95 0 c78 0 95 3 95 15 0 12
-18 15 -105 15 l-105 0 0 -155z"/>
<path d="M4505 858 c-31 -17 -45 -39 -45 -73 0 -41 21 -59 95 -80 33 -10 66
-22 73 -27 18 -15 15 -63 -6 -81 -25 -23 -90 -21 -130 3 -37 23 -42 24 -42 10
0 -21 65 -50 113 -50 40 0 54 5 78 29 16 16 29 40 29 53 0 32 -38 66 -86 79
-70 18 -94 31 -100 54 -15 58 56 93 124 61 21 -10 39 -13 44 -8 13 13 -53 42
-94 42 -18 0 -42 -6 -53 -12z"/>
<path d="M4768 864 c-12 -12 -10 -304 2 -304 6 0 10 30 10 70 l0 70 95 0 94 0
3 -67 c2 -43 8 -68 16 -71 10 -3 12 28 10 147 -2 90 -7 152 -13 154 -6 1 -11
-29 -13 -71 l-3 -73 -92 3 -92 3 -5 73 c-3 41 -8 70 -12 66z"/>
</g>
</svg>
